<svg width="31" height="22" viewBox="0 0 31 22" fill="none" xmlns="http://www.w3.org/2000/svg">
<path d="M2.85825 18.0511C2.41391 18.5715 1.71622 18.6063 1.23861 18.1009L1.14939 17.9954C0.729483 17.4505 0.704952 16.5877 1.10716 16.0042L3.52506 12.51L1.10876 9.02176L1.03307 8.9016C0.681538 8.28183 0.763367 7.42705 1.23782 6.92406L1.241 6.92113C1.3314 6.82702 1.44908 6.75678 1.55887 6.70922C1.67608 6.65847 1.81645 6.61986 1.96677 6.60863C2.26647 6.58631 2.65091 6.67591 2.93951 7.07738L2.94429 7.08422L5.16699 10.2923C7.1928 7.95569 9.70859 6.67699 12.3729 6.67699C15.4826 6.67704 18.3865 8.42246 20.5491 11.5442L20.5507 11.5462C20.9329 12.1038 20.9329 12.9202 20.5507 13.4778L20.5499 13.4798L20.3444 13.7688C18.2047 16.7138 15.3851 18.3469 12.3729 18.347C9.70842 18.347 7.19237 17.0647 5.16699 14.7327L2.94429 17.9397L2.94349 17.9407L2.85825 18.0511Z" fill="#A3E635" stroke="#171717" stroke-linecap="square"/>
<path d="M18.07 5.20375C17.8263 5.48848 17.4419 5.5083 17.1794 5.23011L17.1307 5.1725C16.8997 4.87295 16.8871 4.40155 17.1068 4.08265L17.1077 4.08168L17.729 3.18519L17.1093 2.28968C16.8698 1.94697 16.9023 1.43284 17.1794 1.13929L17.1817 1.13636C17.2463 1.06918 17.3191 1.03008 17.3713 1.00746C17.4308 0.98173 17.5009 0.96238 17.5769 0.95668C17.7285 0.94535 17.9478 0.99009 18.1139 1.22132L18.1187 1.22816L18.6476 1.99281C19.3036 1.33857 20.0904 0.97718 20.9237 0.97718C22.008 0.97719 23.0125 1.58754 23.7519 2.65492L23.7527 2.65687C23.9617 2.96175 23.9617 3.40765 23.7527 3.71254L23.7519 3.71449L23.6101 3.90883C22.8862 4.85708 21.9401 5.39222 20.9237 5.39222C20.0906 5.39222 19.3039 5.03026 18.6484 4.37757L18.1187 5.14125L18.117 5.1432L18.07 5.20375Z" fill="#A3E635" stroke="#171717" stroke-linecap="square"/>
<path d="M22.7969 20.247C22.5456 20.5409 22.159 20.5788 21.8728 20.3329L21.8131 20.2763L21.7589 20.2128C21.5037 19.882 21.4896 19.3604 21.7325 19.0077L21.7334 19.0067L22.5842 17.7782L21.735 16.5526L21.6887 16.4794C21.4757 16.1038 21.5258 15.5854 21.8131 15.2811L21.8154 15.2792C21.8832 15.2086 21.9614 15.1644 22.021 15.1386C22.0878 15.1096 22.1672 15.0883 22.2528 15.0819C22.4233 15.0692 22.663 15.12 22.8447 15.3729L22.8495 15.3788L23.5936 16.453C24.4251 15.5863 25.4327 15.1083 26.4998 15.1083C27.7584 15.1084 28.9325 15.772 29.8331 16.9501L30.0099 17.1933L30.0108 17.1952C30.2419 17.5323 30.2419 18.0251 30.0108 18.3622L30.0099 18.3642L29.8331 18.6073C28.9323 19.7872 27.7581 20.4491 26.4998 20.4491C25.4328 20.4491 24.4247 19.9712 23.5936 19.1063L22.8495 20.1786L22.8487 20.1796L22.7969 20.247Z" fill="#A3E635"/>
<path d="M22.8495 15.3788L22.8447 15.3729C22.663 15.12 22.4233 15.0692 22.2528 15.0819C22.1672 15.0883 22.0878 15.1096 22.021 15.1386C21.9614 15.1644 21.8832 15.2086 21.8154 15.2792L21.8131 15.2811C21.5258 15.5854 21.4757 16.1038 21.6887 16.4794L21.735 16.5526L22.5842 17.7782L21.7334 19.0067L21.7325 19.0077C21.4896 19.3604 21.5037 19.882 21.7589 20.2128L21.8131 20.2763L21.8728 20.3329C22.159 20.5788 22.5456 20.5409 22.7969 20.247L22.8487 20.1796L22.8495 20.1786L23.5936 19.1063C24.4247 19.9712 25.4328 20.4491 26.4998 20.4491C27.7581 20.4491 28.9323 19.7872 29.8331 18.6073L30.0099 18.3642L30.0108 18.3622C30.2419 18.0251 30.2419 17.5323 30.0108 17.1952L30.0099 17.1933L29.8331 16.9501C28.9325 15.772 27.7584 15.1084 26.4998 15.1083C25.4327 15.1083 24.4251 15.5863 23.5936 16.453L22.8495 15.3788ZM22.8495 15.3788L22.5388 15.703" stroke="#171717" stroke-linecap="square"/>
</svg>
