<svg width="20" height="20" viewBox="0 0 20 20" fill="none" xmlns="http://www.w3.org/2000/svg">
<g clip-path="url(#clip0_6280_67)">
<mask id="mask0_6280_67" style="mask-type:luminance" maskUnits="userSpaceOnUse" x="-2" y="-2" width="24" height="24">
<path d="M22 -2H-2V22H22V-2Z" fill="white"/>
</mask>
<g mask="url(#mask0_6280_67)">
<path d="M18.25 7.75L18.2491 1.75094L12.25 1.75" stroke="#171717" stroke-width="1.5" stroke-linecap="round" stroke-linejoin="round"/>
<path d="M10.75 9.25L18.25 1.75" stroke="#171717" stroke-width="1.5" stroke-linecap="round" stroke-linejoin="round"/>
<path d="M15.25 10.75V17.5C15.25 17.6989 15.171 17.8897 15.0303 18.0303C14.8897 18.171 14.6989 18.25 14.5 18.25H2.5C2.30109 18.25 2.11032 18.171 1.96967 18.0303C1.82902 17.8897 1.75 17.6989 1.75 17.5V5.5C1.75 5.30109 1.82902 5.11032 1.96967 4.96967C2.11032 4.82902 2.30109 4.75 2.5 4.75H9.25" stroke="#171717" stroke-width="1.5" stroke-linecap="round" stroke-linejoin="round"/>
</g>
</g>
<defs>
<clipPath id="clip0_6280_67">
<rect width="24" height="24" fill="white" transform="translate(-2 -2)"/>
</clipPath>
</defs>
</svg>
