<svg width="20" height="21" viewBox="0 0 20 21" fill="none" xmlns="http://www.w3.org/2000/svg">
<path d="M16.25 3.03125H14.375V2.40625C14.375 2.24049 14.3092 2.08152 14.1919 1.96431C14.0747 1.8471 13.9158 1.78125 13.75 1.78125C13.5842 1.78125 13.4253 1.8471 13.3081 1.96431C13.1908 2.08152 13.125 2.24049 13.125 2.40625V3.03125H6.875V2.40625C6.875 2.24049 6.80915 2.08152 6.69194 1.96431C6.57473 1.8471 6.41576 1.78125 6.25 1.78125C6.08424 1.78125 5.92527 1.8471 5.80806 1.96431C5.69085 2.08152 5.625 2.24049 5.625 2.40625V3.03125H3.75C3.41848 3.03125 3.10054 3.16295 2.86612 3.39737C2.6317 3.63179 2.5 3.94973 2.5 4.28125V16.7812C2.5 17.1128 2.6317 17.4307 2.86612 17.6651C3.10054 17.8996 3.41848 18.0312 3.75 18.0312H16.25C16.5815 18.0312 16.8995 17.8996 17.1339 17.6651C17.3683 17.4307 17.5 17.1128 17.5 16.7812V4.28125C17.5 3.94973 17.3683 3.63179 17.1339 3.39737C16.8995 3.16295 16.5815 3.03125 16.25 3.03125ZM5.625 4.28125V4.90625C5.625 5.07201 5.69085 5.23098 5.80806 5.34819C5.92527 5.4654 6.08424 5.53125 6.25 5.53125C6.41576 5.53125 6.57473 5.4654 6.69194 5.34819C6.80915 5.23098 6.875 5.07201 6.875 4.90625V4.28125H13.125V4.90625C13.125 5.07201 13.1908 5.23098 13.3081 5.34819C13.4253 5.4654 13.5842 5.53125 13.75 5.53125C13.9158 5.53125 14.0747 5.4654 14.1919 5.34819C14.3092 5.23098 14.375 5.07201 14.375 4.90625V4.28125H16.25V6.78125H3.75V4.28125H5.625ZM16.25 16.7812H3.75V8.03125H16.25V16.7812Z" fill="#171717"/>
</svg>
